<?xml version="1.0" encoding="UTF-8"?>
<svg width="166px" height="36px" viewBox="0 0 166 36" version="1.1" xmlns="http://www.w3.org/2000/svg" xmlns:xlink="http://www.w3.org/1999/xlink">
    <!-- Generator: Sketch 54.1 (76490) - https://sketchapp.com -->
    <title>A Brand / Logos / alan-logo-white-web-header-footer</title>
    <desc>Created with Sketch.</desc>
    <defs>
        <linearGradient x1="63.9066032%" y1="30.1766377%" x2="34.7430855%" y2="69.8233623%" id="linearGradient-1">
            <stop stop-color="#47B0FF" offset="0%" />
            <stop stop-color="#009DFF" offset="100%" />
        </linearGradient>
        <linearGradient x1="30.5461988%" y1="69.6399438%" x2="57.5382%" y2="30.3600562%" id="linearGradient-2">
            <stop stop-color="#32BEFF" offset="0%" />
            <stop stop-color="#5ECCFF" offset="100%" />
        </linearGradient>
        <linearGradient x1="25.0938778%" y1="83.3465813%" x2="63.629194%" y2="16.6534187%" id="linearGradient-3">
            <stop stop-color="#1970E3" offset="0%" />
            <stop stop-color="#115FC6" offset="100%" />
        </linearGradient>
        <linearGradient x1="28.514852%" y1="0%" x2="80.0080138%" y2="100%" id="linearGradient-4">
            <stop stop-color="#62BBFF" offset="0%" />
            <stop stop-color="#009DFF" offset="100%" />
        </linearGradient>
    </defs>
    <g id="A-Brand-/-Logos-/-alan-logo-white-web-header-footer" stroke="none" stroke-width="1" fill="none" fill-rule="evenodd">
        <g id="logo">
            <g>
                <path d="M18.5027551,0.00627211986 C18.4404724,0.00210810544 18.3777833,-5.37139147e-14 18.3147742,-5.35592952e-14 L17.2316076,-5.20942587e-14 L32.1029153,-6.03961325e-14 L33.5523789,-5.20942587e-14 L32.4692123,-5.35592952e-14 C32.4062033,-5.37139147e-14 32.3435141,0.00210810544 32.2812314,0.00627211986 C33.1480068,0.06737221 33.9261956,0.570917011 34.327451,1.34284539 L50.8614341,33.1506438 C50.9018618,33.228418 50.9229511,33.3146092 50.9229511,33.4020619 C50.9229511,33.7057236 50.6740849,33.95189 50.3670928,33.95189 L39.0163005,33.95189 C38.183147,33.95189 37.4199087,33.4911597 37.0389354,32.7582497 L25.3919933,10.3520583 L19.4123112,21.8556701 L24.070225,21.8556701 C24.9051558,21.8556701 25.6697094,22.3183484 26.0498444,23.0536592 L30.8566042,32.3515719 C30.9367298,32.5065622 30.9785111,32.6781544 30.9785111,32.8522337 C30.9785111,33.4595571 30.4807786,33.95189 29.8667944,33.95189 L0.872311919,33.95189 C0.411823817,33.95189 0.0385244533,33.5826403 0.0385244533,33.1271478 C0.0385244533,32.9959688 0.0701583803,32.866682 0.130800014,32.7500206 L16.4565355,1.34284539 C16.8577909,0.570917011 17.6359797,0.06737221 18.5027551,0.00627211986 Z" id="bg" fill="#009DFF" />
                <path d="M19.4123112,21.8556701 L24.070225,21.8556701 C24.9051558,21.8556701 25.6697094,22.3183484 26.0498444,23.0536592 L30.8566042,32.3515719 C30.9367298,32.5065622 30.9785111,32.6781544 30.9785111,32.8522337 C30.9785111,33.4595571 30.4807786,33.95189 29.8667944,33.95189 L11.767686,33.95189 C12.6008395,33.95189 13.3640778,33.4911597 13.7450511,32.7582497 L19.4123112,21.8556701 Z" id="shape" fill="url(#linearGradient-1)" />
                <path d="M19.4123112,21.8556701 L13.7450511,32.7582497 C13.3640778,33.4911597 12.6008395,33.95189 11.767686,33.95189 L0.945953215,33.95189 C0.8139619,33.95189 0.683856306,33.920894 0.56633869,33.8614517 C0.156346078,33.6540708 -0.00605939148,33.1571963 0.203595921,32.7516514 L5.13976968,23.2034079 C5.56742162,22.3761832 6.42754445,21.8556701 7.36684156,21.8556701 L19.4123112,21.8556701 L19.4123112,21.8556701 Z" id="shape" fill="url(#linearGradient-2)" />
                <path d="M19.4123112,21.8556701 L7.36684156,21.8556701 C6.42754445,21.8556701 5.56742162,22.3761832 5.13976968,23.2034079 L16.4565355,1.34284539 C16.8851304,0.518321593 17.7437735,-1.47660199e-15 18.6810712,0 L33.5523789,0 L32.4692123,6.83683732e-15 C31.4277704,4.28121681e-15 30.4737226,0.575912881 29.9975059,1.49205043 L19.4123112,21.8556701 Z" id="shape" fill="url(#linearGradient-3)" />
                <path d="M20.7864806,1.49205043 C20.3102639,0.575912881 19.3562161,-4.02065708e-15 18.3147742,-1.46503657e-15 L17.2316076,0 L32.1029153,-8.30187389e-15 C33.040213,-9.77847588e-15 33.8988561,0.518321593 34.327451,1.34284539 L50.8614341,33.1506438 C50.9018618,33.228418 50.9229511,33.3146092 50.9229511,33.4020619 C50.9229511,33.7057236 50.6740849,33.95189 50.3670928,33.95189 L39.0163005,33.95189 C38.183147,33.95189 37.4199087,33.4911597 37.0389354,32.7582497 L20.7864806,1.49205043 Z" id="shape" fill="url(#linearGradient-4)" />
            </g>
            <path d="M59.6250475,34.3292712 C59.3646768,34.3292712 59.1477045,34.2426047 58.9741241,34.0692692 C58.8005437,33.8959336 58.7137548,33.6792674 58.7137548,33.4192641 L58.8005446,33.0292611 L69.215318,5.07904381 C69.5046187,4.35681236 70.0253522,3.99570205 70.777534,3.99570205 L75.5509718,3.99570205 C76.3031537,3.99570205 76.8238871,4.35681236 77.1131878,5.07904381 L87.5279612,33.0292611 L87.614751,33.4192641 C87.614751,33.6792674 87.5207297,33.8959336 87.3326842,34.0692692 C87.1446388,34.2426047 86.9348989,34.3292712 86.7034584,34.3292712 L82.8413132,34.3292712 C82.2337817,34.3292712 81.814302,34.0548273 81.5828614,33.5059314 L79.5866965,28.2625573 L66.7418093,28.2625573 L64.7456444,33.5059314 C64.5142038,34.0548273 64.0947241,34.3292712 63.4871926,34.3292712 L59.6250475,34.3292712 Z M68.2606304,23.2358516 L78.0678754,23.2358516 L73.1642529,9.8890812 L68.2606304,23.2358516 Z M92.7347844,34.3292712 C92.4454837,34.3292712 92.1995818,34.2281603 91.9970713,34.0259355 C91.7945608,33.8237107 91.693307,33.5781557 91.693307,33.2892631 L91.693307,4.60237344 C91.693307,4.2845916 91.7945608,4.03181439 91.9970713,3.84403421 C92.1995818,3.65625403 92.4454837,3.56236535 92.7347844,3.56236535 L96.3799551,3.56236535 C96.6981859,3.56236535 96.9513202,3.65625403 97.1393656,3.84403421 C97.3274111,4.03181439 97.4214324,4.2845916 97.4214324,4.60237344 L97.4214324,33.2892631 C97.4214324,33.5781557 97.3274111,33.8237107 97.1393656,34.0259355 C96.9513202,34.2281603 96.6981859,34.3292712 96.3799551,34.3292712 L92.7347844,34.3292712 Z M110.309151,34.7626079 C108.833717,34.7626079 107.481257,34.4664974 106.251729,33.8742676 C105.022201,33.2820378 104.053058,32.480373 103.344271,31.4692489 C102.635485,30.4581249 102.281096,29.3459052 102.281096,28.1325563 C102.281096,26.1680868 103.076661,24.5792015 104.667815,23.3658526 C106.258969,22.1525038 108.443157,21.3291723 111.220444,20.8958334 L117.165543,20.02916 L117.165543,19.1191529 C117.165543,17.8769149 116.847317,16.9380281 116.210856,16.3024644 C115.574394,15.6669007 114.561857,15.3491236 113.173214,15.3491236 C112.218521,15.3491236 111.451886,15.5224566 110.873285,15.8691277 C110.294683,16.2157988 109.824577,16.5696869 109.462951,16.9308026 L108.746935,17.6458082 C108.631215,17.9924793 108.414242,18.1658122 108.096012,18.1658122 L104.71121,18.1658122 C104.45084,18.1658122 104.226635,18.0791457 104.038589,17.9058102 C103.850544,17.7324746 103.756523,17.501364 103.756523,17.2124715 C103.785453,16.49024 104.139841,15.6741307 104.819697,14.7641191 C105.499554,13.8541075 106.548253,13.0596648 107.965827,12.3807672 C109.3834,11.7018697 111.133643,11.362426 113.216609,11.362426 C116.630357,11.362426 119.118306,12.1279798 120.680529,13.6591105 C122.242753,15.1902412 123.023854,17.1980145 123.023854,19.6824907 L123.023854,33.2892631 C123.023854,33.5781557 122.929832,33.8237107 122.741787,34.0259355 C122.553741,34.2281603 122.300607,34.3292712 121.982376,34.3292712 L118.3806,34.3292712 C118.0913,34.3292712 117.845398,34.2281603 117.642887,34.0259355 C117.440377,33.8237107 117.339123,33.5781557 117.339123,33.2892631 L117.339123,31.59925 C116.702661,32.5237062 115.805843,33.2820378 114.64864,33.8742676 C113.491437,34.4664974 112.044955,34.7626079 110.309151,34.7626079 Z M111.784577,30.6025755 C113.375731,30.6025755 114.677565,30.0825767 115.690117,29.0425634 C116.70267,28.0025501 117.208938,26.5003313 117.208938,24.5358617 L117.208938,23.6691883 L112.869449,24.362527 C109.542491,24.8825337 107.879037,25.9947534 107.879037,27.6992196 C107.879037,28.6236759 108.262355,29.3386743 109.029002,29.8442363 C109.795649,30.3497983 110.714165,30.6025755 111.784577,30.6025755 Z M130.183447,34.3292712 C129.894146,34.3292712 129.648244,34.2281603 129.445734,34.0259355 C129.243223,33.8237107 129.141969,33.5781557 129.141969,33.2892631 L129.141969,12.8357708 C129.141969,12.5179889 129.243223,12.2652117 129.445734,12.0774315 C129.648244,11.8896514 129.894146,11.7957627 130.183447,11.7957627 L133.785222,11.7957627 C134.103453,11.7957627 134.356588,11.8896514 134.544633,12.0774315 C134.732678,12.2652117 134.8267,12.5179889 134.8267,12.8357708 L134.8267,14.6124512 C136.591434,12.4457569 139.007059,11.362426 142.073646,11.362426 C144.735213,11.362426 146.847076,12.2290907 148.4093,13.9624462 C149.971524,15.6958017 150.752624,18.0791297 150.752624,21.1125018 L150.752624,33.2892631 C150.752624,33.5781557 150.658603,33.8237107 150.470557,34.0259355 C150.282512,34.2281603 150.029378,34.3292712 149.711147,34.3292712 L145.805607,34.3292712 C145.516306,34.3292712 145.270404,34.2281603 145.067894,34.0259355 C144.865383,33.8237107 144.764129,33.5781557 144.764129,33.2892631 L144.764129,21.3725038 C144.764129,19.6969268 144.351882,18.3897075 143.527375,17.4508066 C142.702868,16.5119058 141.523985,16.0424624 139.990692,16.0424624 C138.515258,16.0424624 137.329143,16.519128 136.432311,17.4724735 C135.535479,18.425819 135.087069,19.7258161 135.087069,21.3725038 L135.087069,33.2892631 C135.087069,33.5781557 134.993048,33.8237107 134.805002,34.0259355 C134.616957,34.2281603 134.363823,34.3292712 134.045592,34.3292712 L130.183447,34.3292712 Z" id="Alan" fill="#2b2b2b" />
            <path d="M154.357304,8.16393443 C154.173679,8.16393443 154.026781,8.10766727 153.916606,7.99513127 C153.806431,7.88259527 153.751344,7.73254952 153.751344,7.54498952 L153.751344,2.25582399 L152.319075,2.25582399 C152.13545,2.25582399 151.988552,2.19955683 151.878377,2.08702083 C151.768201,1.97448483 151.713115,1.82443908 151.713115,1.63687908 L151.713115,1.29927277 C151.713115,1.11171277 151.768201,0.961667024 151.878377,0.849131024 C151.988552,0.736595025 152.13545,0.680327869 152.319075,0.680327869 L156.781144,0.680327869 C156.964769,0.680327869 157.111667,0.736595025 157.221842,0.849131024 C157.332018,0.961667024 157.387104,1.11171277 157.387104,1.29927277 L157.387104,1.63687908 C157.387104,1.82443908 157.332018,1.97448483 157.221842,2.08702083 C157.111667,2.19955683 156.964769,2.25582399 156.781144,2.25582399 L155.348875,2.25582399 L155.348875,7.54498952 C155.348875,7.73254952 155.293788,7.88259527 155.183613,7.99513127 C155.073438,8.10766727 154.92654,8.16393443 154.742915,8.16393443 L154.357304,8.16393443 Z M158.819373,8.16393443 C158.635748,8.16393443 158.48885,8.10766727 158.378675,7.99513127 C158.2685,7.88259527 158.213413,7.73254952 158.213413,7.54498952 L158.213413,1.29927277 C158.213413,1.11171277 158.2685,0.961667024 158.378675,0.849131024 C158.48885,0.736595025 158.635748,0.680327869 158.819373,0.680327869 L159.204984,0.680327869 C159.517147,0.680327869 159.801762,0.886640773 160.058837,1.29927277 L161.766543,4.08452484 L163.474248,1.29927277 C163.731324,0.886640773 164.015938,0.680327869 164.328101,0.680327869 L164.713712,0.680327869 C164.897337,0.680327869 165.044235,0.736595025 165.15441,0.849131024 C165.264585,0.961667024 165.319672,1.11171277 165.319672,1.29927277 L165.319672,7.54498952 C165.319672,7.73254952 165.264585,7.88259527 165.15441,7.99513127 C165.044235,8.10766727 164.897337,8.16393443 164.713712,8.16393443 L164.328101,8.16393443 C164.144476,8.16393443 163.997578,8.10766727 163.887403,7.99513127 C163.777228,7.88259527 163.722141,7.73254952 163.722141,7.54498952 L163.722141,3.91572168 L162.592852,5.80069025 C162.464314,6.00700625 162.354141,6.15236307 162.262328,6.23676507 C162.170516,6.32116707 162.04198,6.36336743 161.876717,6.36336743 L161.656368,6.36336743 C161.491106,6.36336743 161.36257,6.32116707 161.270757,6.23676507 C161.178945,6.15236307 161.068771,6.00700625 160.940234,5.80069025 L159.810944,3.91572168 L159.810944,7.54498952 C159.810944,7.73254952 159.755858,7.88259527 159.645683,7.99513127 C159.535508,8.10766727 159.38861,8.16393443 159.204984,8.16393443 L158.819373,8.16393443 Z" id="™" fill="#2b2b2b" />
        </g>
    </g>
</svg>
